<?xml version="1.0" encoding="UTF-8"?>
<svg id="Layer_1" data-name="Layer 1" xmlns="http://www.w3.org/2000/svg" viewBox="0 0 391.11 79.74">
  <defs>
    <style>
      .cls-1 {
        fill: #fff;
      }
    </style>
  </defs>
  <path class="cls-1" d="M95.72,23.09l.02,4.35-2.09,1.2c1.93,4.54,1.5,15.18-3.86,16.85-2.56.8-6.66-.62-7.05,2.91-.02.65,7.79,1.3,9.54,2.43,6.65,4.26,2.76,15.18-5.02,15.98-10.33,1.06-14.14-5.61-7.54-13.47l-.11-1.35-1.91-.7c-.94-4.25,2.81-7.05,2.82-7.85,0-.43-2.38-2.7-2.73-5-2.32-15.15,4.59-16.4,17.92-15.35ZM88.53,40.74c1.63-2.63,2.17-14.14-2.13-13.56-5.2.43-4.91,13.9-1.01,14.63l3.14-1.07ZM81.86,61.71c6.44,4.09,13.6-5.51,4.91-7.43-4.81-1.06-5.3,3.5-4.91,7.43Z"/>
  <path class="cls-1" d="M190.7,54.63c-3.59-3.59-3.12-16.83,2.44-18.45,1.95-.57,4.28-.03,6.31-.18,1.08-7.95-2.15-11.39-9.49-6.97-3.24-2.46-.82-5.08,2.21-5.73,5.28-1.13,11.3-.95,12.22,5.3,1.09,7.36-.59,17.01-.1,24.64-1.07,3.34-11.5,3.49-13.6,1.4ZM195.98,39.99c-3.23.95-3.68,13.43,1.96,11.89,2.16-.59,3.23-13.42-1.96-11.89Z"/>
  <path class="cls-1" d="M140.6,54.86h-4.99v-26.31l-1.59-1.45-4.39.96v26.81h-4.99v-29.29c2.58-2.59,9.99-3.47,12.97-1.98.47.23,2.99,2.77,2.99,2.98v28.29Z"/>
  <path class="cls-1" d="M62.8,52.87l-2.49-1.94-3.48-5.51c1.71,3.47,2.2,7.64,2.55,11.45.14,1.6.47,2.4-1.55,2.95-.87-4.71-2.53-9.69-4.23-14.16-.34-.9-4.7-8.22-1.27-6.68l4.48,4.47c-7.92-12.44-12.87-8.26-18.13,2.79-4.57,9.59-7.06,22.33-11.57,31.17-.72,1.41-1.34,2.62-3.2,2.27-1.09-1.27,6.2-20.69,7.48-23.82,2.81-6.87,6.15-14.36,10.46-20.36l-5.97,3.48c-.49-2.82,1.25-3.84,3.07-5.38,14.16-12,20.28,8.94,23.86,19.27Z"/>
  <path class="cls-1" d="M152.57,41.96c-.31.31,1.16,7.53,1.91,8.51,2.99,3.91,8.12-1.55,9.05-.57l-.11,4.85c-10.95,3.85-15.06-.72-15.86-11.29-.57-7.6.9-23.6,12.3-20.18,5.66,1.7,6.39,17.15,2.03,18.54l-9.33.14ZM159.44,36.87c.2-3.49,1.32-8.82-3.36-9.81-2.19.5-3.21,8.65-3.51,10.91l6.87-1.1Z"/>
  <path class="cls-1" d="M105.69,41.96c-.31.31,1.16,7.53,1.91,8.51,2.99,3.91,8.12-1.55,9.05-.57l-.11,4.85c-10.95,3.85-15.06-.72-15.86-11.29-.57-7.6.9-23.6,12.3-20.18,5.66,1.7,6.39,17.15,2.03,18.54l-9.33.14ZM112.56,36.87c.2-3.49,1.32-8.82-3.36-9.81-2.19.5-3.21,8.65-3.51,10.91l6.87-1.1Z"/>
  <path class="cls-1" d="M370.01,23.09l-3.99,1.99c5.13,4.16,3.37,16.92-2.67,18.68-3.9,1.14-8.26-1.93-9.33,4.6,4.95,3.18,14.93.54,16.01,8.03,2.28,15.88-30.98,13.3-14.99-4.03-6.4-2.32-.91-6.13-.99-8.95-.04-1.34-1.7-2.36-1.99-3.97-.44-2.4-.22-8.04.45-10.45,2.38-8.44,10.64-5.47,17.49-5.92ZM363.77,40.68c6-5.24,1.09-21.16-7.24-13.64-6.91,6.24.3,19.71,7.24,13.64ZM365.79,62.57c4.34-8.63-1.93-10.48-9.57-9.52-7.02,9.43.37,14.87,9.57,9.52Z"/>
  <rect class="cls-1" x="211.42" y="9.19" width="4.99" height="45.67"/>
  <path class="cls-1" d="M257.14,39.79l-12.81,1.16c-.37,5.07-.68,13.26,6.4,12.9.97-.05,8.1-3.61,6.56-.49-1.77,3.58-10.31,3.3-12.94.98-4.89-4.32-3.8-24.4.51-29.23,1.89-2.11,6.14-2.63,8.77-1.85,4.55,1.35,5.26,12.58,3.5,16.53ZM254.1,26.29c-8.54-3.98-10.61,6.02-9.77,12.69l10.95-1.02-1.18-11.67Z"/>
  <path class="cls-1" d="M21.9,13.16c-1.33-1.12-.16-1.9,1.49-1.97,9.93-.42,11.64-2.45,21.35,2.57,14.78,7.64,23.8,22.24,20.55,39.12-1.82-9.22-3.13-18.05-9.05-25.74-3.05-3.96-15.06-13.98-19.87-13.98h-14.46Z"/>
  <path class="cls-1" d="M171.52,25.07c3.77-1.33,6.77-2.64,10.98-1.99v4.97s-5.99,0-5.99,0v26.81h-4.99v-29.78Z"/>
  <path class="cls-1" d="M282.24,54.86h-1.99v-25.32c0-.43-1.24-2.24-1.22-3.24-3.39-2.09-7.84-1.35-10.75,1.26v27.3h-1.99v-29.29c2.58-2.59,9.99-3.47,12.97-1.98.47.23,2.99,2.77,2.99,2.98v28.29Z"/>
  <path class="cls-1" d="M343.09,54.86h-1.99v-25.32c0-.43-1.24-2.24-1.22-3.24-3.39-2.09-7.84-1.35-10.75,1.26v27.3h-1.99v-29.29c2.58-2.59,9.99-3.47,12.97-1.98.47.23,2.99,2.77,2.99,2.98v28.29Z"/>
  <path class="cls-1" d="M19.9,55.85c-1.78.24-1-2.24-.78-3.25,1.67-7.54,6.02-13.48,4.73-22.02-.8-5.33-6.02-9.04-11.35-8.44-2.37.27-4.55,2.01-7.07,2.01-1.67,0-5.33-.59-4.48-3.03,7.93.88,11.72-4.02,19.67-.23,12.58,6,2.37,25.63-.73,34.97Z"/>
  <path class="cls-1" d="M227.38,25.07c-.71-.71-6.08,1.68-4.98-1.98h4.99c-.33-6.44-.83-14.61,7.45-14.96,2.44-.1,5.73-.37,5.51,3.04-9.91-3.8-11.28,3.73-10.97,11.92.82.81,7.11-1.83,5.99,1.98h-5.98v29.79h-1.99v-29.78Z"/>
  <path class="cls-1" d="M306.18,51.88c0,4.48-8.28,4.85-10.98,3.48-6-3.03-5.03-26.31.27-31.02,2.36-2.1,8.94-2.06,10.7,1.22-2.3,2.8-3.29-1.26-7-.09-6.7,2.12-6.41,23.58-2.96,26.89,4.04,3.88,9.01-1.34,9.97-.49Z"/>
  <path class="cls-1" d="M13.91,15.15l-2-.51c1.89-4.22,1.44-9.05-2.97-11.4-1.35,4.41-1.47,10.45-5.99,12.91L5.94,3.23.45,10.18C-1.21,8.21,2.12,1.66,3.93.74c5.6-2.85,12.67,3.07,12,8.88-.23,1.96-1.96,3.5-2.02,5.53Z"/>
  <rect class="cls-1" x="314.16" y="23.09" width="2.99" height="31.77"/>
  <path class="cls-1" d="M390.96,26.07l-5.55-.93c-1.05-1.16-.04-6.45.67-6.91,1.56-1,4.89,1.86,3.88-3.08,1.75-.23.94,2.25.99,3.46.1,2.48-.06,4.99,0,7.46ZM388.47,19.13c-1.99,0-1.99,5.93,0,5.93s1.99-5.93,0-5.93Z"/>
  <path class="cls-1" d="M381.94,16.19l2.05,2.43-2.05,1.1v4.76s2.04,1.59,2.04,1.59c-1.57.14-3.25.27-3.84-1.63s-1.75-9.44,1.8-8.25Z"/>
  <path class="cls-1" d="M377.99,15.15c-.11,3.13.16,6.31,0,9.44-.08,1.63-.88,2.78-1.99,1.47.11-3.13-.16-6.31,0-9.44.08-1.63.88-2.78,1.99-1.47Z"/>
  <path class="cls-1" d="M314.16,14.15v-3.96c3.95.02,3.95,3.94,0,3.96Z"/>
</svg>